<svg width="1200" height="704" viewBox="0 0 1200 704" fill="none" xmlns="http://www.w3.org/2000/svg">
<g clip-path="url(#clip0_21_5311)">
<rect opacity="0.05" width="1.85466" height="1.85951" transform="matrix(-0.71391 -0.700238 0.719543 -0.694448 874.646 693.029)" fill="#D9D9D9"/>
<rect opacity="0.05" width="5.56398" height="5.57853" transform="matrix(-0.71391 -0.700238 0.719543 -0.694448 874.632 695.619)" fill="#D9D9D9"/>
<rect opacity="0.05" width="1.85466" height="1.85951" transform="matrix(-0.71391 -0.700238 0.719543 -0.694448 839.234 658.295)" fill="#D9D9D9"/>
<rect opacity="0.05" width="5.56398" height="5.57853" transform="matrix(-0.71391 -0.700238 0.719543 -0.694448 839.22 660.885)" fill="#D9D9D9"/>
<rect opacity="0.05" width="1.85466" height="1.85951" transform="matrix(-0.71391 -0.700238 0.719543 -0.694448 803.822 623.561)" fill="#D9D9D9"/>
<rect opacity="0.05" width="5.56398" height="5.57853" transform="matrix(-0.71391 -0.700238 0.719543 -0.694448 803.808 626.151)" fill="#D9D9D9"/>
<rect opacity="0.05" width="1.85466" height="1.85951" transform="matrix(-0.71391 -0.700238 0.719543 -0.694448 768.409 588.827)" fill="#D9D9D9"/>
<rect opacity="0.05" width="5.56398" height="5.57853" transform="matrix(-0.71391 -0.700238 0.719543 -0.694448 768.396 591.417)" fill="#D9D9D9"/>
<rect opacity="0.05" width="1.85466" height="1.85951" transform="matrix(-0.71391 -0.700238 0.719543 -0.694448 732.997 554.093)" fill="#D9D9D9"/>
<rect opacity="0.05" width="5.56398" height="5.57853" transform="matrix(-0.71391 -0.700238 0.719543 -0.694448 732.983 556.683)" fill="#D9D9D9"/>
<rect opacity="0.05" width="1.85466" height="1.85951" transform="matrix(-0.71391 -0.700238 0.719543 -0.694448 697.585 519.359)" fill="#D9D9D9"/>
<rect opacity="0.05" width="5.56398" height="5.57853" transform="matrix(-0.71391 -0.700238 0.719543 -0.694448 697.571 521.949)" fill="#D9D9D9"/>
<rect opacity="0.05" width="1.85466" height="1.85951" transform="matrix(-0.71391 -0.700238 0.719543 -0.694448 662.173 484.625)" fill="#D9D9D9"/>
<rect opacity="0.05" width="5.56398" height="5.57853" transform="matrix(-0.71391 -0.700238 0.719543 -0.694448 662.159 487.215)" fill="#D9D9D9"/>
<rect opacity="0.05" width="1.85466" height="1.85951" transform="matrix(-0.71391 -0.700238 0.719543 -0.694448 983.856 681.086)" fill="#D9D9D9"/>
<rect opacity="0.05" width="5.56398" height="5.57853" transform="matrix(-0.71391 -0.700238 0.719543 -0.694448 983.843 683.676)" fill="#D9D9D9"/>
<rect opacity="0.05" width="1.85466" height="1.85951" transform="matrix(-0.71391 -0.700238 0.719543 -0.694448 948.444 646.352)" fill="#D9D9D9"/>
<rect opacity="0.05" width="5.56398" height="5.57853" transform="matrix(-0.71391 -0.700238 0.719543 -0.694448 948.43 648.942)" fill="#D9D9D9"/>
<rect opacity="0.05" width="1.85466" height="1.85951" transform="matrix(-0.71391 -0.700238 0.719543 -0.694448 913.032 611.618)" fill="#D9D9D9"/>
<rect opacity="0.05" width="5.56398" height="5.57853" transform="matrix(-0.71391 -0.700238 0.719543 -0.694448 913.018 614.208)" fill="#D9D9D9"/>
<rect opacity="0.05" width="1.85466" height="1.85951" transform="matrix(-0.71391 -0.700238 0.719543 -0.694448 877.62 576.884)" fill="#D9D9D9"/>
<rect opacity="0.05" width="5.56398" height="5.57853" transform="matrix(-0.71391 -0.700238 0.719543 -0.694448 877.606 579.474)" fill="#D9D9D9"/>
<rect opacity="0.05" width="1.85466" height="1.85951" transform="matrix(-0.71391 -0.700238 0.719543 -0.694448 842.208 542.15)" fill="#D9D9D9"/>
<rect opacity="0.05" width="5.56398" height="5.57853" transform="matrix(-0.71391 -0.700238 0.719543 -0.694448 842.194 544.74)" fill="#D9D9D9"/>
<rect opacity="0.05" width="1.85466" height="1.85951" transform="matrix(-0.71391 -0.700238 0.719543 -0.694448 806.796 507.416)" fill="#D9D9D9"/>
<rect opacity="0.05" width="5.56398" height="5.57853" transform="matrix(-0.71391 -0.700238 0.719543 -0.694448 806.782 510.006)" fill="#D9D9D9"/>
<rect opacity="0.05" width="1.85466" height="1.85951" transform="matrix(-0.71391 -0.700238 0.719543 -0.694448 771.383 472.682)" fill="#D9D9D9"/>
<rect opacity="0.05" width="5.56398" height="5.57853" transform="matrix(-0.71391 -0.700238 0.719543 -0.694448 771.369 475.272)" fill="#D9D9D9"/>
<rect opacity="0.05" width="1.85466" height="1.85951" transform="matrix(-0.71391 -0.700238 0.719543 -0.694448 735.971 437.948)" fill="#D9D9D9"/>
<rect opacity="0.05" width="5.56398" height="5.57853" transform="matrix(-0.71391 -0.700238 0.719543 -0.694448 735.957 440.538)" fill="#D9D9D9"/>
<rect opacity="0.05" width="5.56398" height="5.57853" transform="matrix(-0.71391 -0.700238 0.719543 -0.694448 1124.25 709.336)" fill="#D9D9D9"/>
<rect opacity="0.05" width="1.85466" height="1.85951" transform="matrix(-0.71391 -0.700238 0.719543 -0.694448 1088.85 672.012)" fill="#D9D9D9"/>
<rect opacity="0.05" width="5.56398" height="5.57853" transform="matrix(-0.71391 -0.700238 0.719543 -0.694448 1088.84 674.602)" fill="#D9D9D9"/>
<rect opacity="0.05" width="1.85466" height="1.85951" transform="matrix(-0.71391 -0.700238 0.719543 -0.694448 1053.44 637.278)" fill="#D9D9D9"/>
<rect opacity="0.05" width="5.56398" height="5.57853" transform="matrix(-0.71391 -0.700238 0.719543 -0.694448 1053.43 639.868)" fill="#D9D9D9"/>
<rect opacity="0.05" width="1.85466" height="1.85951" transform="matrix(-0.71391 -0.700238 0.719543 -0.694448 1018.03 602.544)" fill="#D9D9D9"/>
<rect opacity="0.05" width="5.56398" height="5.57853" transform="matrix(-0.71391 -0.700238 0.719543 -0.694448 1018.01 605.134)" fill="#D9D9D9"/>
<rect opacity="0.05" width="1.85466" height="1.85951" transform="matrix(-0.71391 -0.700238 0.719543 -0.694448 982.616 567.81)" fill="#D9D9D9"/>
<rect opacity="0.05" width="5.56398" height="5.57853" transform="matrix(-0.71391 -0.700238 0.719543 -0.694448 982.602 570.4)" fill="#D9D9D9"/>
<rect opacity="0.05" width="1.85466" height="1.85951" transform="matrix(-0.71391 -0.700238 0.719543 -0.694448 947.204 533.076)" fill="#D9D9D9"/>
<rect opacity="0.05" width="5.56398" height="5.57853" transform="matrix(-0.71391 -0.700238 0.719543 -0.694448 947.19 535.666)" fill="#D9D9D9"/>
<rect opacity="0.05" width="1.85466" height="1.85951" transform="matrix(-0.71391 -0.700238 0.719543 -0.694448 911.792 498.342)" fill="#D9D9D9"/>
<rect opacity="0.05" width="5.56398" height="5.57853" transform="matrix(-0.71391 -0.700238 0.719543 -0.694448 911.778 500.932)" fill="#D9D9D9"/>
<rect opacity="0.05" width="1.85466" height="1.85951" transform="matrix(-0.71391 -0.700238 0.719543 -0.694448 876.38 463.608)" fill="#D9D9D9"/>
<rect opacity="0.05" width="5.56398" height="5.57853" transform="matrix(-0.71391 -0.700238 0.719543 -0.694448 876.366 466.198)" fill="#D9D9D9"/>
<rect opacity="0.05" width="1.85466" height="1.85951" transform="matrix(-0.71391 -0.700238 0.719543 -0.694448 840.968 428.874)" fill="#D9D9D9"/>
<rect opacity="0.05" width="5.56398" height="5.57853" transform="matrix(-0.71391 -0.700238 0.719543 -0.694448 840.954 431.464)" fill="#D9D9D9"/>
<rect opacity="0.05" width="1.85466" height="1.85951" transform="matrix(-0.71391 -0.700238 0.719543 -0.694448 805.555 394.14)" fill="#D9D9D9"/>
<rect opacity="0.05" width="5.56398" height="5.57853" transform="matrix(-0.71391 -0.700238 0.719543 -0.694448 805.542 396.73)" fill="#D9D9D9"/>
<rect opacity="0.05" width="1.85466" height="1.85951" transform="matrix(-0.71391 -0.700238 0.719543 -0.694448 1193.85 662.937)" fill="#D9D9D9"/>
<rect opacity="0.05" width="5.56398" height="5.57853" transform="matrix(-0.71391 -0.700238 0.719543 -0.694448 1193.83 665.527)" fill="#D9D9D9"/>
<rect opacity="0.05" width="1.85466" height="1.85951" transform="matrix(-0.71391 -0.700238 0.719543 -0.694448 1158.44 628.203)" fill="#D9D9D9"/>
<rect opacity="0.05" width="5.56398" height="5.57853" transform="matrix(-0.71391 -0.700238 0.719543 -0.694448 1158.42 630.793)" fill="#D9D9D9"/>
<rect opacity="0.05" width="1.85466" height="1.85951" transform="matrix(-0.71391 -0.700238 0.719543 -0.694448 1123.02 593.469)" fill="#D9D9D9"/>
<rect opacity="0.05" width="5.56398" height="5.57853" transform="matrix(-0.71391 -0.700238 0.719543 -0.694448 1123.01 596.059)" fill="#D9D9D9"/>
<rect opacity="0.05" width="1.85466" height="1.85951" transform="matrix(-0.71391 -0.700238 0.719543 -0.694448 1087.61 558.735)" fill="#D9D9D9"/>
<rect opacity="0.05" width="5.56398" height="5.57853" transform="matrix(-0.71391 -0.700238 0.719543 -0.694448 1087.6 561.325)" fill="#D9D9D9"/>
<rect opacity="0.05" width="1.85466" height="1.85951" transform="matrix(-0.71391 -0.700238 0.719543 -0.694448 1052.2 524)" fill="#D9D9D9"/>
<rect opacity="0.05" width="5.56398" height="5.57853" transform="matrix(-0.71391 -0.700238 0.719543 -0.694448 1052.19 526.591)" fill="#D9D9D9"/>
<rect opacity="0.05" width="1.85466" height="1.85951" transform="matrix(-0.71391 -0.700238 0.719543 -0.694448 1016.79 489.266)" fill="#D9D9D9"/>
<rect opacity="0.05" width="5.56398" height="5.57853" transform="matrix(-0.71391 -0.700238 0.719543 -0.694448 1016.77 491.856)" fill="#D9D9D9"/>
<rect opacity="0.05" width="1.85466" height="1.85951" transform="matrix(-0.71391 -0.700238 0.719543 -0.694448 981.375 454.532)" fill="#D9D9D9"/>
<rect opacity="0.05" width="5.56398" height="5.57853" transform="matrix(-0.71391 -0.700238 0.719543 -0.694448 981.361 457.123)" fill="#D9D9D9"/>
<rect opacity="0.05" width="1.85466" height="1.85951" transform="matrix(-0.71391 -0.700238 0.719543 -0.694448 945.963 419.799)" fill="#D9D9D9"/>
<rect opacity="0.05" width="5.56398" height="5.57853" transform="matrix(-0.71391 -0.700238 0.719543 -0.694448 945.949 422.389)" fill="#D9D9D9"/>
<rect opacity="0.05" width="1.85466" height="1.85951" transform="matrix(-0.71391 -0.700238 0.719543 -0.694448 910.551 385.065)" fill="#D9D9D9"/>
<rect opacity="0.05" width="5.56398" height="5.57853" transform="matrix(-0.71391 -0.700238 0.719543 -0.694448 910.537 387.655)" fill="#D9D9D9"/>
<rect opacity="0.05" width="1.85466" height="1.85951" transform="matrix(-0.71391 -0.700238 0.719543 -0.694448 875.139 350.331)" fill="#D9D9D9"/>
<rect opacity="0.05" width="5.56398" height="5.57853" transform="matrix(-0.71391 -0.700238 0.719543 -0.694448 875.125 352.921)" fill="#D9D9D9"/>
<rect opacity="0.05" width="1.85466" height="1.85951" transform="matrix(-0.71391 -0.700238 0.719543 -0.694448 1192.61 549.661)" fill="#D9D9D9"/>
<rect opacity="0.05" width="5.56398" height="5.57853" transform="matrix(-0.71391 -0.700238 0.719543 -0.694448 1192.59 552.251)" fill="#D9D9D9"/>
<rect opacity="0.05" width="1.85466" height="1.85951" transform="matrix(-0.71391 -0.700238 0.719543 -0.694448 1157.19 514.927)" fill="#D9D9D9"/>
<rect opacity="0.05" width="5.56398" height="5.57853" transform="matrix(-0.71391 -0.700238 0.719543 -0.694448 1157.18 517.517)" fill="#D9D9D9"/>
<rect opacity="0.05" width="1.85466" height="1.85951" transform="matrix(-0.71391 -0.700238 0.719543 -0.694448 1121.78 480.193)" fill="#D9D9D9"/>
<rect opacity="0.05" width="5.56398" height="5.57853" transform="matrix(-0.71391 -0.700238 0.719543 -0.694448 1121.77 482.783)" fill="#D9D9D9"/>
<rect opacity="0.05" width="1.85466" height="1.85951" transform="matrix(-0.71391 -0.700238 0.719543 -0.694448 1086.37 445.459)" fill="#D9D9D9"/>
<rect opacity="0.05" width="5.56398" height="5.57853" transform="matrix(-0.71391 -0.700238 0.719543 -0.694448 1086.36 448.049)" fill="#D9D9D9"/>
<rect opacity="0.05" width="1.85466" height="1.85951" transform="matrix(-0.71391 -0.700238 0.719543 -0.694448 1050.96 410.725)" fill="#D9D9D9"/>
<rect opacity="0.05" width="5.56398" height="5.57853" transform="matrix(-0.71391 -0.700238 0.719543 -0.694448 1050.94 413.315)" fill="#D9D9D9"/>
<rect opacity="0.05" width="1.85466" height="1.85951" transform="matrix(-0.71391 -0.700238 0.719543 -0.694448 1015.55 375.991)" fill="#D9D9D9"/>
<rect opacity="0.05" width="5.56398" height="5.57853" transform="matrix(-0.71391 -0.700238 0.719543 -0.694448 1015.53 378.582)" fill="#D9D9D9"/>
<rect opacity="0.05" width="1.85466" height="1.85951" transform="matrix(-0.71391 -0.700238 0.719543 -0.694448 980.134 341.257)" fill="#D9D9D9"/>
<rect opacity="0.05" width="5.56398" height="5.57853" transform="matrix(-0.71391 -0.700238 0.719543 -0.694448 980.12 343.847)" fill="#D9D9D9"/>
<rect opacity="0.05" width="1.85466" height="1.85951" transform="matrix(-0.71391 -0.700238 0.719543 -0.694448 944.722 306.523)" fill="#D9D9D9"/>
<rect opacity="0.05" width="5.56398" height="5.57853" transform="matrix(-0.71391 -0.700238 0.719543 -0.694448 944.708 309.113)" fill="#D9D9D9"/>
<rect opacity="0.05" width="1.85466" height="1.85951" transform="matrix(-0.71391 -0.700238 0.719543 -0.694448 1191.37 436.385)" fill="#D9D9D9"/>
<rect opacity="0.05" width="5.56398" height="5.57853" transform="matrix(-0.71391 -0.700238 0.719543 -0.694448 1191.35 438.975)" fill="#D9D9D9"/>
<rect opacity="0.05" width="1.85466" height="1.85951" transform="matrix(-0.71391 -0.700238 0.719543 -0.694448 1155.95 401.65)" fill="#D9D9D9"/>
<rect opacity="0.05" width="5.56398" height="5.57853" transform="matrix(-0.71391 -0.700238 0.719543 -0.694448 1155.94 404.24)" fill="#D9D9D9"/>
<rect opacity="0.05" width="1.85466" height="1.85951" transform="matrix(-0.71391 -0.700238 0.719543 -0.694448 1120.54 366.916)" fill="#D9D9D9"/>
<rect opacity="0.05" width="5.56398" height="5.57853" transform="matrix(-0.71391 -0.700238 0.719543 -0.694448 1120.53 369.506)" fill="#D9D9D9"/>
<rect opacity="0.05" width="1.85466" height="1.85951" transform="matrix(-0.71391 -0.700238 0.719543 -0.694448 1085.13 332.182)" fill="#D9D9D9"/>
<rect opacity="0.05" width="5.56398" height="5.57853" transform="matrix(-0.71391 -0.700238 0.719543 -0.694448 1085.12 334.772)" fill="#D9D9D9"/>
<rect opacity="0.05" width="1.85466" height="1.85951" transform="matrix(-0.71391 -0.700238 0.719543 -0.694448 1049.72 297.448)" fill="#D9D9D9"/>
<rect opacity="0.05" width="5.56398" height="5.57853" transform="matrix(-0.71391 -0.700238 0.719543 -0.694448 1049.7 300.038)" fill="#D9D9D9"/>
<rect opacity="0.05" width="1.85466" height="1.85951" transform="matrix(-0.71391 -0.700238 0.719543 -0.694448 1014.31 262.714)" fill="#D9D9D9"/>
<rect opacity="0.05" width="5.56398" height="5.57853" transform="matrix(-0.71391 -0.700238 0.719543 -0.694448 1014.29 265.304)" fill="#D9D9D9"/>
<rect opacity="0.05" width="1.85466" height="1.85951" transform="matrix(-0.71391 -0.700238 0.719543 -0.694448 1190.13 323.116)" fill="#D9D9D9"/>
<rect opacity="0.05" width="5.56398" height="5.57853" transform="matrix(-0.71391 -0.700238 0.719543 -0.694448 1190.12 325.706)" fill="#D9D9D9"/>
<rect opacity="0.05" width="1.85466" height="1.85951" transform="matrix(-0.71391 -0.700238 0.719543 -0.694448 1154.72 288.382)" fill="#D9D9D9"/>
<rect opacity="0.05" width="5.56398" height="5.57853" transform="matrix(-0.71391 -0.700238 0.719543 -0.694448 1154.71 290.972)" fill="#D9D9D9"/>
<rect opacity="0.05" width="1.85466" height="1.85951" transform="matrix(-0.71391 -0.700238 0.719543 -0.694448 1119.31 253.648)" fill="#D9D9D9"/>
<rect opacity="0.05" width="5.56398" height="5.57853" transform="matrix(-0.71391 -0.700238 0.719543 -0.694448 1119.3 256.238)" fill="#D9D9D9"/>
<rect opacity="0.05" width="1.85466" height="1.85951" transform="matrix(-0.71391 -0.700238 0.719543 -0.694448 1083.9 218.914)" fill="#D9D9D9"/>
<rect opacity="0.05" width="5.56398" height="5.57853" transform="matrix(-0.71391 -0.700238 0.719543 -0.694448 1083.88 221.504)" fill="#D9D9D9"/>
<rect opacity="0.05" width="1.85466" height="1.85951" transform="matrix(-0.71391 -0.700238 0.719543 -0.694448 1193.1 206.964)" fill="#D9D9D9"/>
<rect opacity="0.05" width="5.56398" height="5.57853" transform="matrix(-0.71391 -0.700238 0.719543 -0.694448 1193.09 209.554)" fill="#D9D9D9"/>
<rect opacity="0.05" width="1.85466" height="1.85951" transform="matrix(-0.71391 -0.700238 0.719543 -0.694448 1157.69 172.23)" fill="#D9D9D9"/>
<rect opacity="0.05" width="5.56398" height="5.57853" transform="matrix(-0.71391 -0.700238 0.719543 -0.694448 1157.68 174.82)" fill="#D9D9D9"/>
<rect opacity="0.05" width="1.85466" height="1.85951" transform="matrix(-0.71391 -0.700238 0.719543 -0.694448 1192.33 150.18)" fill="#D9D9D9"/>
<rect opacity="0.05" width="5.56398" height="5.57853" transform="matrix(-0.71391 -0.700238 0.719543 -0.694448 1192.32 152.77)" fill="#D9D9D9"/>
<rect opacity="0.05" width="1.85849" height="1.85568" transform="matrix(-0.71391 -0.700238 0.7196 -0.694389 765.065 704.615)" fill="#D9D9D9"/>
<rect opacity="0.05" width="5.57547" height="5.56704" transform="matrix(-0.71391 -0.700238 0.7196 -0.694389 765.057 707.205)" fill="#D9D9D9"/>
<rect opacity="0.05" width="1.85849" height="1.85568" transform="matrix(-0.71391 -0.700238 0.7196 -0.694389 729.581 669.81)" fill="#D9D9D9"/>
<rect opacity="0.05" width="5.57547" height="5.56704" transform="matrix(-0.71391 -0.700238 0.7196 -0.694389 729.573 672.399)" fill="#D9D9D9"/>
<rect opacity="0.05" width="1.85849" height="1.85568" transform="matrix(-0.71391 -0.700238 0.7196 -0.694389 694.096 635.004)" fill="#D9D9D9"/>
<rect opacity="0.05" width="5.57547" height="5.56704" transform="matrix(-0.71391 -0.700238 0.7196 -0.694389 694.087 637.594)" fill="#D9D9D9"/>
<rect opacity="0.05" width="1.85849" height="1.85568" transform="matrix(-0.71391 -0.700238 0.7196 -0.694389 658.611 600.198)" fill="#D9D9D9"/>
<rect opacity="0.05" width="5.57547" height="5.56704" transform="matrix(-0.71391 -0.700238 0.7196 -0.694389 658.602 602.788)" fill="#D9D9D9"/>
<rect opacity="0.05" width="1.85849" height="1.85568" transform="matrix(-0.71391 -0.700238 0.7196 -0.694389 623.125 565.392)" fill="#D9D9D9"/>
<rect opacity="0.05" width="5.57547" height="5.56704" transform="matrix(-0.71391 -0.700238 0.7196 -0.694389 623.117 567.982)" fill="#D9D9D9"/>
<rect opacity="0.05" width="1.85849" height="1.85568" transform="matrix(-0.71391 -0.700238 0.7196 -0.694389 587.64 530.587)" fill="#D9D9D9"/>
<rect opacity="0.05" width="5.57547" height="5.56704" transform="matrix(-0.71391 -0.700238 0.7196 -0.694389 587.631 533.177)" fill="#D9D9D9"/>
<rect opacity="0.05" width="1.85849" height="1.85568" transform="matrix(-0.71391 -0.700238 0.7196 -0.694389 623.797 678.111)" fill="#D9D9D9"/>
<rect opacity="0.05" width="5.57547" height="5.56704" transform="matrix(-0.71391 -0.700238 0.7196 -0.694389 623.788 680.701)" fill="#D9D9D9"/>
<rect opacity="0.05" width="1.85849" height="1.85568" transform="matrix(-0.71391 -0.700238 0.7196 -0.694389 588.312 643.305)" fill="#D9D9D9"/>
<rect opacity="0.05" width="5.57547" height="5.56704" transform="matrix(-0.71391 -0.700238 0.7196 -0.694389 588.303 645.895)" fill="#D9D9D9"/>
<rect opacity="0.05" width="1.85849" height="1.85568" transform="matrix(-0.71391 -0.700238 0.7196 -0.694389 552.826 608.5)" fill="#D9D9D9"/>
<rect opacity="0.05" width="5.57547" height="5.56704" transform="matrix(-0.71391 -0.700238 0.7196 -0.694389 552.818 611.089)" fill="#D9D9D9"/>
<rect opacity="0.05" width="1.85849" height="1.85568" transform="matrix(-0.71391 -0.700238 0.7196 -0.694389 517.341 573.694)" fill="#D9D9D9"/>
<rect opacity="0.05" width="5.57547" height="5.56704" transform="matrix(-0.71391 -0.700238 0.7196 -0.694389 517.333 576.284)" fill="#D9D9D9"/>
<rect opacity="0.05" width="1.85849" height="1.85568" transform="matrix(-0.71391 -0.700238 0.7196 -0.694389 588.649 699.665)" fill="#D9D9D9"/>
<rect opacity="0.05" width="5.57547" height="5.56704" transform="matrix(-0.71391 -0.700238 0.7196 -0.694389 588.64 702.255)" fill="#D9D9D9"/>
<rect opacity="0.05" width="1.85849" height="1.85568" transform="matrix(-0.71391 -0.700238 0.7196 -0.694389 553.163 664.859)" fill="#D9D9D9"/>
<rect opacity="0.05" width="5.57547" height="5.56704" transform="matrix(-0.71391 -0.700238 0.7196 -0.694389 553.155 667.449)" fill="#D9D9D9"/>
<rect opacity="0.05" width="1.85849" height="1.85568" transform="matrix(-0.71391 -0.700238 0.7196 -0.694389 517.678 630.054)" fill="#D9D9D9"/>
<rect opacity="0.05" width="5.57547" height="5.56704" transform="matrix(-0.71391 -0.700238 0.7196 -0.694389 517.669 632.644)" fill="#D9D9D9"/>
<rect opacity="0.05" width="1.85849" height="1.85568" transform="matrix(-0.71391 -0.700238 0.7196 -0.694389 482.193 595.248)" fill="#D9D9D9"/>
<rect opacity="0.05" width="5.57547" height="5.56704" transform="matrix(-0.71391 -0.700238 0.7196 -0.694389 482.184 597.838)" fill="#D9D9D9"/>
<rect opacity="0.05" width="1.85849" height="1.85568" transform="matrix(-0.71391 -0.700238 0.7196 -0.694389 518.018 686.417)" fill="#D9D9D9"/>
<rect opacity="0.05" width="5.57547" height="5.56704" transform="matrix(-0.71391 -0.700238 0.7196 -0.694389 518.01 689.007)" fill="#D9D9D9"/>
<rect opacity="0.05" width="1.85849" height="1.85568" transform="matrix(-0.71391 -0.700238 0.7196 -0.694389 482.533 651.611)" fill="#D9D9D9"/>
<rect opacity="0.05" width="5.57547" height="5.56704" transform="matrix(-0.71391 -0.700238 0.7196 -0.694389 482.524 654.201)" fill="#D9D9D9"/>
<rect opacity="0.05" width="1.85849" height="1.85568" transform="matrix(-0.71391 -0.700238 0.7196 -0.694389 447.048 616.805)" fill="#D9D9D9"/>
<rect opacity="0.05" width="5.57547" height="5.56704" transform="matrix(-0.71391 -0.700238 0.7196 -0.694389 447.039 619.395)" fill="#D9D9D9"/>
<rect opacity="0.05" width="5.57547" height="5.56704" transform="matrix(-0.71391 -0.700238 0.7196 -0.694389 482.857 710.557)" fill="#D9D9D9"/>
<rect opacity="0.05" width="1.85849" height="1.85568" transform="matrix(-0.71391 -0.700238 0.7196 -0.694389 447.381 673.162)" fill="#D9D9D9"/>
<rect opacity="0.05" width="5.57547" height="5.56704" transform="matrix(-0.71391 -0.700238 0.7196 -0.694389 447.372 675.752)" fill="#D9D9D9"/>
<rect opacity="0.05" width="1.85849" height="1.85568" transform="matrix(-0.71391 -0.700238 0.7196 -0.694389 411.896 638.356)" fill="#D9D9D9"/>
<rect opacity="0.05" width="5.57547" height="5.56704" transform="matrix(-0.71391 -0.700238 0.7196 -0.694389 411.887 640.946)" fill="#D9D9D9"/>
<rect opacity="0.05" width="1.85849" height="1.85568" transform="matrix(-0.71391 -0.700238 0.7196 -0.694389 412.232 694.716)" fill="#D9D9D9"/>
<rect opacity="0.05" width="5.57547" height="5.56704" transform="matrix(-0.71391 -0.700238 0.7196 -0.694389 412.223 697.305)" fill="#D9D9D9"/>
<rect opacity="0.05" width="1.85849" height="1.85568" transform="matrix(-0.71391 -0.700238 0.7196 -0.694389 376.747 659.91)" fill="#D9D9D9"/>
<rect opacity="0.05" width="5.57547" height="5.56704" transform="matrix(-0.71391 -0.700238 0.7196 -0.694389 376.738 662.5)" fill="#D9D9D9"/>
<rect opacity="0.05" width="1.85849" height="1.85568" transform="matrix(-0.71391 -0.700238 0.7196 -0.694389 341.603 681.469)" fill="#D9D9D9"/>
<rect opacity="0.05" width="5.57547" height="5.56704" transform="matrix(-0.71391 -0.700238 0.7196 -0.694389 341.595 684.059)" fill="#D9D9D9"/>
<rect opacity="0.05" width="1.85849" height="1.85568" transform="matrix(-0.71391 -0.700238 0.7196 -0.694389 306.449 703.018)" fill="#D9D9D9"/>
<rect opacity="0.05" width="5.57547" height="5.56704" transform="matrix(-0.71391 -0.700238 0.7196 -0.694389 306.441 705.608)" fill="#D9D9D9"/>
<rect opacity="0.05" width="1.85849" height="1.85568" transform="matrix(-0.71391 -0.700238 0.7196 -0.694389 1189.27 266.247)" fill="#D9D9D9"/>
<rect opacity="0.05" width="5.57547" height="5.56704" transform="matrix(-0.71391 -0.700238 0.7196 -0.694389 1189.26 268.837)" fill="#D9D9D9"/>
<rect opacity="0.05" width="1.85849" height="1.85568" transform="matrix(-0.71391 -0.700238 0.7196 -0.694389 1153.79 231.442)" fill="#D9D9D9"/>
<rect opacity="0.05" width="5.57547" height="5.56704" transform="matrix(-0.71391 -0.700238 0.7196 -0.694389 1153.78 234.031)" fill="#D9D9D9"/>
<rect opacity="0.05" width="1.85849" height="1.85568" transform="matrix(-0.71391 -0.700238 0.7196 -0.694389 1118.3 196.636)" fill="#D9D9D9"/>
<rect opacity="0.05" width="5.57547" height="5.56704" transform="matrix(-0.71391 -0.700238 0.7196 -0.694389 1118.29 199.226)" fill="#D9D9D9"/>
<rect opacity="0.05" width="1.85849" height="1.85568" transform="matrix(-0.71391 -0.700238 0.7196 -0.694389 1190.66 379.667)" fill="#D9D9D9"/>
<rect opacity="0.05" width="5.57547" height="5.56704" transform="matrix(-0.71391 -0.700238 0.7196 -0.694389 1190.65 382.257)" fill="#D9D9D9"/>
<rect opacity="0.05" width="1.85849" height="1.85568" transform="matrix(-0.71391 -0.700238 0.7196 -0.694389 1155.17 344.861)" fill="#D9D9D9"/>
<rect opacity="0.05" width="5.57547" height="5.56704" transform="matrix(-0.71391 -0.700238 0.7196 -0.694389 1155.16 347.451)" fill="#D9D9D9"/>
<rect opacity="0.05" width="1.85849" height="1.85568" transform="matrix(-0.71391 -0.700238 0.7196 -0.694389 1119.69 310.055)" fill="#D9D9D9"/>
<rect opacity="0.05" width="5.57547" height="5.56704" transform="matrix(-0.71391 -0.700238 0.7196 -0.694389 1119.68 312.645)" fill="#D9D9D9"/>
<rect opacity="0.05" width="1.85849" height="1.85568" transform="matrix(-0.71391 -0.700238 0.7196 -0.694389 1084.2 275.25)" fill="#D9D9D9"/>
<rect opacity="0.05" width="5.57547" height="5.56704" transform="matrix(-0.71391 -0.700238 0.7196 -0.694389 1084.19 277.839)" fill="#D9D9D9"/>
<rect opacity="0.05" width="1.85849" height="1.85568" transform="matrix(-0.71391 -0.700238 0.7196 -0.694389 1048.72 240.444)" fill="#D9D9D9"/>
<rect opacity="0.05" width="5.57547" height="5.56704" transform="matrix(-0.71391 -0.700238 0.7196 -0.694389 1048.71 243.034)" fill="#D9D9D9"/>
<rect opacity="0.05" width="1.85849" height="1.85568" transform="matrix(-0.71391 -0.700238 0.7196 -0.694389 1192.05 493.086)" fill="#D9D9D9"/>
<rect opacity="0.05" width="5.57547" height="5.56704" transform="matrix(-0.71391 -0.700238 0.7196 -0.694389 1192.04 495.676)" fill="#D9D9D9"/>
<rect opacity="0.05" width="1.85849" height="1.85568" transform="matrix(-0.71391 -0.700238 0.7196 -0.694389 1156.56 458.281)" fill="#D9D9D9"/>
<rect opacity="0.05" width="5.57547" height="5.56704" transform="matrix(-0.71391 -0.700238 0.7196 -0.694389 1156.55 460.87)" fill="#D9D9D9"/>
<rect opacity="0.05" width="1.85849" height="1.85568" transform="matrix(-0.71391 -0.700238 0.7196 -0.694389 1121.08 423.475)" fill="#D9D9D9"/>
<rect opacity="0.05" width="5.57547" height="5.56704" transform="matrix(-0.71391 -0.700238 0.7196 -0.694389 1121.07 426.065)" fill="#D9D9D9"/>
<rect opacity="0.05" width="1.85849" height="1.85568" transform="matrix(-0.71391 -0.700238 0.7196 -0.694389 1085.59 388.669)" fill="#D9D9D9"/>
<rect opacity="0.05" width="5.57547" height="5.56704" transform="matrix(-0.71391 -0.700238 0.7196 -0.694389 1085.58 391.259)" fill="#D9D9D9"/>
<rect opacity="0.05" width="1.85849" height="1.85568" transform="matrix(-0.71391 -0.700238 0.7196 -0.694389 1050.1 353.863)" fill="#D9D9D9"/>
<rect opacity="0.05" width="5.57547" height="5.56704" transform="matrix(-0.71391 -0.700238 0.7196 -0.694389 1050.1 356.453)" fill="#D9D9D9"/>
<rect opacity="0.05" width="1.85849" height="1.85568" transform="matrix(-0.71391 -0.700238 0.7196 -0.694389 1014.62 319.058)" fill="#D9D9D9"/>
<rect opacity="0.05" width="5.57547" height="5.56704" transform="matrix(-0.71391 -0.700238 0.7196 -0.694389 1014.61 321.647)" fill="#D9D9D9"/>
<rect opacity="0.05" width="1.85849" height="1.85568" transform="matrix(-0.71391 -0.700238 0.7196 -0.694389 979.134 284.252)" fill="#D9D9D9"/>
<rect opacity="0.05" width="5.57547" height="5.56704" transform="matrix(-0.71391 -0.700238 0.7196 -0.694389 979.125 286.842)" fill="#D9D9D9"/>
<rect opacity="0.05" width="1.85849" height="1.85568" transform="matrix(-0.71391 -0.700238 0.7196 -0.694389 1193.43 606.506)" fill="#D9D9D9"/>
<rect opacity="0.05" width="5.57547" height="5.56704" transform="matrix(-0.71391 -0.700238 0.7196 -0.694389 1193.42 609.095)" fill="#D9D9D9"/>
<rect opacity="0.05" width="1.85849" height="1.85568" transform="matrix(-0.71391 -0.700238 0.7196 -0.694389 1157.95 571.7)" fill="#D9D9D9"/>
<rect opacity="0.05" width="5.57547" height="5.56704" transform="matrix(-0.71391 -0.700238 0.7196 -0.694389 1157.94 574.29)" fill="#D9D9D9"/>
<rect opacity="0.05" width="1.85849" height="1.85568" transform="matrix(-0.71391 -0.700238 0.7196 -0.694389 1122.46 536.894)" fill="#D9D9D9"/>
<rect opacity="0.05" width="5.57547" height="5.56704" transform="matrix(-0.71391 -0.700238 0.7196 -0.694389 1122.45 539.484)" fill="#D9D9D9"/>
<rect opacity="0.05" width="1.85849" height="1.85568" transform="matrix(-0.71391 -0.700238 0.7196 -0.694389 1086.98 502.089)" fill="#D9D9D9"/>
<rect opacity="0.05" width="5.57547" height="5.56704" transform="matrix(-0.71391 -0.700238 0.7196 -0.694389 1086.97 504.678)" fill="#D9D9D9"/>
<rect opacity="0.05" width="1.85849" height="1.85568" transform="matrix(-0.71391 -0.700238 0.7196 -0.694389 1051.49 467.285)" fill="#D9D9D9"/>
<rect opacity="0.05" width="5.57547" height="5.56704" transform="matrix(-0.71391 -0.700238 0.7196 -0.694389 1051.49 469.875)" fill="#D9D9D9"/>
<rect opacity="0.05" width="1.85849" height="1.85568" transform="matrix(-0.71391 -0.700238 0.7196 -0.694389 1016.01 432.479)" fill="#D9D9D9"/>
<rect opacity="0.05" width="5.57547" height="5.56704" transform="matrix(-0.71391 -0.700238 0.7196 -0.694389 1016 435.069)" fill="#D9D9D9"/>
<rect opacity="0.05" width="1.85849" height="1.85568" transform="matrix(-0.71391 -0.700238 0.7196 -0.694389 980.524 397.673)" fill="#D9D9D9"/>
<rect opacity="0.05" width="5.57547" height="5.56704" transform="matrix(-0.71391 -0.700238 0.7196 -0.694389 980.515 400.263)" fill="#D9D9D9"/>
<rect opacity="0.05" width="1.85849" height="1.85568" transform="matrix(-0.71391 -0.700238 0.7196 -0.694389 945.038 362.868)" fill="#D9D9D9"/>
<rect opacity="0.05" width="5.57547" height="5.56704" transform="matrix(-0.71391 -0.700238 0.7196 -0.694389 945.03 365.458)" fill="#D9D9D9"/>
<rect opacity="0.05" width="1.85849" height="1.85568" transform="matrix(-0.71391 -0.700238 0.7196 -0.694389 909.553 328.062)" fill="#D9D9D9"/>
<rect opacity="0.05" width="5.57547" height="5.56704" transform="matrix(-0.71391 -0.700238 0.7196 -0.694389 909.544 330.652)" fill="#D9D9D9"/>
<rect opacity="0.05" width="1.85849" height="1.85568" transform="matrix(-0.71391 -0.700238 0.7196 -0.694389 1159.33 685.12)" fill="#D9D9D9"/>
<rect opacity="0.05" width="5.57547" height="5.56704" transform="matrix(-0.71391 -0.700238 0.7196 -0.694389 1159.33 687.71)" fill="#D9D9D9"/>
<rect opacity="0.05" width="1.85849" height="1.85568" transform="matrix(-0.71391 -0.700238 0.7196 -0.694389 1123.85 650.314)" fill="#D9D9D9"/>
<rect opacity="0.05" width="5.57547" height="5.56704" transform="matrix(-0.71391 -0.700238 0.7196 -0.694389 1123.84 652.904)" fill="#D9D9D9"/>
<rect opacity="0.05" width="1.85849" height="1.85568" transform="matrix(-0.71391 -0.700238 0.7196 -0.694389 1088.36 615.509)" fill="#D9D9D9"/>
<rect opacity="0.05" width="5.57547" height="5.56704" transform="matrix(-0.71391 -0.700238 0.7196 -0.694389 1088.36 618.098)" fill="#D9D9D9"/>
<rect opacity="0.05" width="1.85849" height="1.85568" transform="matrix(-0.71391 -0.700238 0.7196 -0.694389 1052.88 580.703)" fill="#D9D9D9"/>
<rect opacity="0.05" width="5.57547" height="5.56704" transform="matrix(-0.71391 -0.700238 0.7196 -0.694389 1052.87 583.293)" fill="#D9D9D9"/>
<rect opacity="0.05" width="1.85849" height="1.85568" transform="matrix(-0.71391 -0.700238 0.7196 -0.694389 1017.39 545.897)" fill="#D9D9D9"/>
<rect opacity="0.05" width="5.57547" height="5.56704" transform="matrix(-0.71391 -0.700238 0.7196 -0.694389 1017.39 548.487)" fill="#D9D9D9"/>
<rect opacity="0.05" width="1.85849" height="1.85568" transform="matrix(-0.71391 -0.700238 0.7196 -0.694389 981.908 511.091)" fill="#D9D9D9"/>
<rect opacity="0.05" width="5.57547" height="5.56704" transform="matrix(-0.71391 -0.700238 0.7196 -0.694389 981.9 513.681)" fill="#D9D9D9"/>
<rect opacity="0.05" width="1.85849" height="1.85568" transform="matrix(-0.71391 -0.700238 0.7196 -0.694389 946.423 476.286)" fill="#D9D9D9"/>
<rect opacity="0.05" width="5.57547" height="5.56704" transform="matrix(-0.71391 -0.700238 0.7196 -0.694389 946.414 478.875)" fill="#D9D9D9"/>
<rect opacity="0.05" width="1.85849" height="1.85568" transform="matrix(-0.71391 -0.700238 0.7196 -0.694389 910.938 441.48)" fill="#D9D9D9"/>
<rect opacity="0.05" width="5.57547" height="5.56704" transform="matrix(-0.71391 -0.700238 0.7196 -0.694389 910.929 444.07)" fill="#D9D9D9"/>
<rect opacity="0.05" width="1.85849" height="1.85568" transform="matrix(-0.71391 -0.700238 0.7196 -0.694389 875.452 406.674)" fill="#D9D9D9"/>
<rect opacity="0.05" width="5.57547" height="5.56704" transform="matrix(-0.71391 -0.700238 0.7196 -0.694389 875.444 409.264)" fill="#D9D9D9"/>
<rect opacity="0.05" width="1.85849" height="1.85568" transform="matrix(-0.71391 -0.700238 0.7196 -0.694389 839.967 371.868)" fill="#D9D9D9"/>
<rect opacity="0.05" width="5.57547" height="5.56704" transform="matrix(-0.71391 -0.700238 0.7196 -0.694389 839.958 374.458)" fill="#D9D9D9"/>
<rect opacity="0.05" width="1.85849" height="1.85568" transform="matrix(-0.71391 -0.700238 0.7196 -0.694389 1054.27 694.123)" fill="#D9D9D9"/>
<rect opacity="0.05" width="5.57547" height="5.56704" transform="matrix(-0.71391 -0.700238 0.7196 -0.694389 1054.26 696.713)" fill="#D9D9D9"/>
<rect opacity="0.05" width="1.85849" height="1.85568" transform="matrix(-0.71391 -0.700238 0.7196 -0.694389 1018.78 659.317)" fill="#D9D9D9"/>
<rect opacity="0.05" width="5.57547" height="5.56704" transform="matrix(-0.71391 -0.700238 0.7196 -0.694389 1018.77 661.907)" fill="#D9D9D9"/>
<rect opacity="0.05" width="1.85849" height="1.85568" transform="matrix(-0.71391 -0.700238 0.7196 -0.694389 983.295 624.511)" fill="#D9D9D9"/>
<rect opacity="0.05" width="5.57547" height="5.56704" transform="matrix(-0.71391 -0.700238 0.7196 -0.694389 983.287 627.101)" fill="#D9D9D9"/>
<rect opacity="0.05" width="1.85849" height="1.85568" transform="matrix(-0.71391 -0.700238 0.7196 -0.694389 947.81 589.706)" fill="#D9D9D9"/>
<rect opacity="0.05" width="5.57547" height="5.56704" transform="matrix(-0.71391 -0.700238 0.7196 -0.694389 947.802 592.295)" fill="#D9D9D9"/>
<rect opacity="0.05" width="1.85849" height="1.85568" transform="matrix(-0.71391 -0.700238 0.7196 -0.694389 912.324 554.9)" fill="#D9D9D9"/>
<rect opacity="0.05" width="5.57547" height="5.56704" transform="matrix(-0.71391 -0.700238 0.7196 -0.694389 912.316 557.49)" fill="#D9D9D9"/>
<rect opacity="0.05" width="1.85849" height="1.85568" transform="matrix(-0.71391 -0.700238 0.7196 -0.694389 876.839 520.094)" fill="#D9D9D9"/>
<rect opacity="0.05" width="5.57547" height="5.56704" transform="matrix(-0.71391 -0.700238 0.7196 -0.694389 876.831 522.684)" fill="#D9D9D9"/>
<rect opacity="0.05" width="1.85849" height="1.85568" transform="matrix(-0.71391 -0.700238 0.7196 -0.694389 841.354 485.288)" fill="#D9D9D9"/>
<rect opacity="0.05" width="5.57547" height="5.56704" transform="matrix(-0.71391 -0.700238 0.7196 -0.694389 841.345 487.878)" fill="#D9D9D9"/>
<rect opacity="0.05" width="1.85849" height="1.85568" transform="matrix(-0.71391 -0.700238 0.7196 -0.694389 805.868 450.482)" fill="#D9D9D9"/>
<rect opacity="0.05" width="5.57547" height="5.56704" transform="matrix(-0.71391 -0.700238 0.7196 -0.694389 805.86 453.072)" fill="#D9D9D9"/>
<rect opacity="0.05" width="1.85849" height="1.85568" transform="matrix(-0.71391 -0.700238 0.7196 -0.694389 770.383 415.677)" fill="#D9D9D9"/>
<rect opacity="0.05" width="5.57547" height="5.56704" transform="matrix(-0.71391 -0.700238 0.7196 -0.694389 770.375 418.267)" fill="#D9D9D9"/>
<rect opacity="0.05" width="1.85849" height="1.85568" transform="matrix(-0.71391 -0.700238 0.7196 -0.694389 949.198 703.125)" fill="#D9D9D9"/>
<rect opacity="0.05" width="5.57547" height="5.56704" transform="matrix(-0.71391 -0.700238 0.7196 -0.694389 949.189 705.715)" fill="#D9D9D9"/>
<rect opacity="0.05" width="1.85849" height="1.85568" transform="matrix(-0.71391 -0.700238 0.7196 -0.694389 913.712 668.319)" fill="#D9D9D9"/>
<rect opacity="0.05" width="5.57547" height="5.56704" transform="matrix(-0.71391 -0.700238 0.7196 -0.694389 913.704 670.909)" fill="#D9D9D9"/>
<rect opacity="0.05" width="1.85849" height="1.85568" transform="matrix(-0.71391 -0.700238 0.7196 -0.694389 878.227 633.514)" fill="#D9D9D9"/>
<rect opacity="0.05" width="5.57547" height="5.56704" transform="matrix(-0.71391 -0.700238 0.7196 -0.694389 878.219 636.104)" fill="#D9D9D9"/>
<rect opacity="0.05" width="1.85849" height="1.85568" transform="matrix(-0.71391 -0.700238 0.7196 -0.694389 842.743 598.709)" fill="#D9D9D9"/>
<rect opacity="0.05" width="5.57547" height="5.56704" transform="matrix(-0.71391 -0.700238 0.7196 -0.694389 842.735 601.299)" fill="#D9D9D9"/>
<rect opacity="0.05" width="1.85849" height="1.85568" transform="matrix(-0.71391 -0.700238 0.7196 -0.694389 807.258 563.903)" fill="#D9D9D9"/>
<rect opacity="0.05" width="5.57547" height="5.56704" transform="matrix(-0.71391 -0.700238 0.7196 -0.694389 807.25 566.493)" fill="#D9D9D9"/>
<rect opacity="0.05" width="1.85849" height="1.85568" transform="matrix(-0.71391 -0.700238 0.7196 -0.694389 771.773 529.097)" fill="#D9D9D9"/>
<rect opacity="0.05" width="5.57547" height="5.56704" transform="matrix(-0.71391 -0.700238 0.7196 -0.694389 771.764 531.687)" fill="#D9D9D9"/>
<rect opacity="0.05" width="1.85849" height="1.85568" transform="matrix(-0.71391 -0.700238 0.7196 -0.694389 736.288 494.292)" fill="#D9D9D9"/>
<rect opacity="0.05" width="5.57547" height="5.56704" transform="matrix(-0.71391 -0.700238 0.7196 -0.694389 736.279 496.882)" fill="#D9D9D9"/>
<rect opacity="0.05" width="1.85849" height="1.85568" transform="matrix(-0.71391 -0.700238 0.7196 -0.694389 700.802 459.486)" fill="#D9D9D9"/>
<rect opacity="0.05" width="5.57547" height="5.56704" transform="matrix(-0.71391 -0.700238 0.7196 -0.694389 700.794 462.076)" fill="#D9D9D9"/>
<rect opacity="0.05" width="1.85849" height="1.85568" transform="matrix(-0.71391 -0.700238 0.7196 -0.694389 804.429 680.191)" fill="#D9D9D9"/>
<rect opacity="0.05" width="5.57547" height="5.56704" transform="matrix(-0.71391 -0.700238 0.7196 -0.694389 804.42 682.781)" fill="#D9D9D9"/>
<rect opacity="0.05" width="1.85849" height="1.85568" transform="matrix(-0.71391 -0.700238 0.7196 -0.694389 768.943 645.385)" fill="#D9D9D9"/>
<rect opacity="0.05" width="5.57547" height="5.56704" transform="matrix(-0.71391 -0.700238 0.7196 -0.694389 768.935 647.975)" fill="#D9D9D9"/>
<rect opacity="0.05" width="1.85849" height="1.85568" transform="matrix(-0.71391 -0.700238 0.7196 -0.694389 733.458 610.58)" fill="#D9D9D9"/>
<rect opacity="0.05" width="5.57547" height="5.56704" transform="matrix(-0.71391 -0.700238 0.7196 -0.694389 733.449 613.17)" fill="#D9D9D9"/>
<rect opacity="0.05" width="1.85849" height="1.85568" transform="matrix(-0.71391 -0.700238 0.7196 -0.694389 697.973 575.774)" fill="#D9D9D9"/>
<rect opacity="0.05" width="5.57547" height="5.56704" transform="matrix(-0.71391 -0.700238 0.7196 -0.694389 697.964 578.364)" fill="#D9D9D9"/>
<rect opacity="0.05" width="1.85849" height="1.85568" transform="matrix(-0.71391 -0.700238 0.7196 -0.694389 662.488 540.968)" fill="#D9D9D9"/>
<rect opacity="0.05" width="5.57547" height="5.56704" transform="matrix(-0.71391 -0.700238 0.7196 -0.694389 662.479 543.558)" fill="#D9D9D9"/>
<rect opacity="0.05" width="1.85849" height="1.85568" transform="matrix(-0.71391 -0.700238 0.7196 -0.694389 627.002 506.163)" fill="#D9D9D9"/>
<rect opacity="0.05" width="5.57547" height="5.56704" transform="matrix(-0.71391 -0.700238 0.7196 -0.694389 626.994 508.752)" fill="#D9D9D9"/>
<rect opacity="0.05" width="1.85849" height="1.85568" transform="matrix(-0.71391 -0.700238 0.7196 -0.694389 694.431 691.363)" fill="#D9D9D9"/>
<rect opacity="0.05" width="5.57547" height="5.56704" transform="matrix(-0.71391 -0.700238 0.7196 -0.694389 694.423 693.953)" fill="#D9D9D9"/>
<rect opacity="0.05" width="1.85849" height="1.85568" transform="matrix(-0.71391 -0.700238 0.7196 -0.694389 658.946 656.557)" fill="#D9D9D9"/>
<rect opacity="0.05" width="5.57547" height="5.56704" transform="matrix(-0.71391 -0.700238 0.7196 -0.694389 658.937 659.147)" fill="#D9D9D9"/>
<rect opacity="0.05" width="1.85849" height="1.85568" transform="matrix(-0.71391 -0.700238 0.7196 -0.694389 623.461 621.751)" fill="#D9D9D9"/>
<rect opacity="0.05" width="5.57547" height="5.56704" transform="matrix(-0.71391 -0.700238 0.7196 -0.694389 623.452 624.341)" fill="#D9D9D9"/>
<rect opacity="0.05" width="1.85849" height="1.85568" transform="matrix(-0.71391 -0.700238 0.7196 -0.694389 587.975 586.946)" fill="#D9D9D9"/>
<rect opacity="0.05" width="5.57547" height="5.56704" transform="matrix(-0.71391 -0.700238 0.7196 -0.694389 587.967 589.535)" fill="#D9D9D9"/>
<rect opacity="0.05" width="1.85849" height="1.85568" transform="matrix(-0.71391 -0.700238 0.7196 -0.694389 552.49 552.14)" fill="#D9D9D9"/>
<rect opacity="0.05" width="5.57547" height="5.56704" transform="matrix(-0.71391 -0.700238 0.7196 -0.694389 552.481 554.73)" fill="#D9D9D9"/>
<rect opacity="0.05" width="5.56398" height="5.57853" transform="matrix(-0.840012 0.542569 -0.51934 -0.854568 83.3796 -1.90527)" fill="#D9D9D9"/>
<rect opacity="0.05" width="1.85466" height="1.85951" transform="matrix(-0.840012 0.542569 -0.51934 -0.854568 39.189 24.425)" fill="#D9D9D9"/>
<rect opacity="0.05" width="5.56398" height="5.57853" transform="matrix(-0.840012 0.542569 -0.51934 -0.854568 41.7126 25.0078)" fill="#D9D9D9"/>
<rect opacity="0.05" width="5.56398" height="5.57853" transform="matrix(-0.840012 0.542569 -0.51934 -0.854568 0.045166 51.9211)" fill="#D9D9D9"/>
<rect opacity="0.05" width="1.85849" height="1.85568" transform="matrix(-0.840011 0.542569 -0.51927 -0.854611 234.745 -0.692383)" fill="#D9D9D9"/>
<rect opacity="0.05" width="5.57547" height="5.56704" transform="matrix(-0.840011 0.542569 -0.51927 -0.854611 237.27 -0.114746)" fill="#D9D9D9"/>
<rect opacity="0.05" width="1.85849" height="1.85568" transform="matrix(-0.840011 0.542569 -0.51927 -0.854611 192.993 26.2751)" fill="#D9D9D9"/>
<rect opacity="0.05" width="5.57547" height="5.56704" transform="matrix(-0.840011 0.542569 -0.51927 -0.854611 195.517 26.8528)" fill="#D9D9D9"/>
<rect opacity="0.05" width="1.85849" height="1.85568" transform="matrix(-0.840011 0.542569 -0.51927 -0.854611 151.239 53.2439)" fill="#D9D9D9"/>
<rect opacity="0.05" width="5.57547" height="5.56704" transform="matrix(-0.840011 0.542569 -0.51927 -0.854611 153.764 53.8215)" fill="#D9D9D9"/>
<rect opacity="0.05" width="1.85849" height="1.85568" transform="matrix(-0.840011 0.542569 -0.51927 -0.854611 109.486 80.2126)" fill="#D9D9D9"/>
<rect opacity="0.05" width="5.57547" height="5.56704" transform="matrix(-0.840011 0.542569 -0.51927 -0.854611 112.011 80.7903)" fill="#D9D9D9"/>
<rect opacity="0.05" width="1.85849" height="1.85568" transform="matrix(-0.840011 0.542569 -0.51927 -0.854611 67.7327 107.181)" fill="#D9D9D9"/>
<rect opacity="0.05" width="5.57547" height="5.56704" transform="matrix(-0.840011 0.542569 -0.51927 -0.854611 70.2573 107.759)" fill="#D9D9D9"/>
<rect opacity="0.05" width="1.85849" height="1.85568" transform="matrix(-0.840011 0.542569 -0.51927 -0.854611 25.9795 134.15)" fill="#D9D9D9"/>
<rect opacity="0.05" width="5.57547" height="5.56704" transform="matrix(-0.840011 0.542569 -0.51927 -0.854611 28.5042 134.728)" fill="#D9D9D9"/>
<rect opacity="0.05" width="5.57547" height="5.56704" transform="matrix(-0.840011 0.542569 -0.51927 -0.854611 389.135 -2.96851)" fill="#D9D9D9"/>
<rect opacity="0.05" width="1.85849" height="1.85568" transform="matrix(-0.840011 0.542569 -0.51927 -0.854611 344.856 23.4226)" fill="#D9D9D9"/>
<rect opacity="0.05" width="5.57547" height="5.56704" transform="matrix(-0.840011 0.542569 -0.51927 -0.854611 347.381 24.0002)" fill="#D9D9D9"/>
<rect opacity="0.05" width="1.85849" height="1.85568" transform="matrix(-0.840011 0.542569 -0.51927 -0.854611 303.104 50.3914)" fill="#D9D9D9"/>
<rect opacity="0.05" width="5.57547" height="5.56704" transform="matrix(-0.840011 0.542569 -0.51927 -0.854611 305.628 50.969)" fill="#D9D9D9"/>
<rect opacity="0.05" width="1.85849" height="1.85568" transform="matrix(-0.840011 0.542569 -0.51927 -0.854611 261.35 77.3601)" fill="#D9D9D9"/>
<rect opacity="0.05" width="5.57547" height="5.56704" transform="matrix(-0.840011 0.542569 -0.51927 -0.854611 263.875 77.9377)" fill="#D9D9D9"/>
<rect opacity="0.05" width="1.85849" height="1.85568" transform="matrix(-0.840011 0.542569 -0.51927 -0.854611 219.597 104.329)" fill="#D9D9D9"/>
<rect opacity="0.05" width="5.57547" height="5.56704" transform="matrix(-0.840011 0.542569 -0.51927 -0.854611 222.121 104.906)" fill="#D9D9D9"/>
<rect opacity="0.05" width="1.85849" height="1.85568" transform="matrix(-0.840011 0.542569 -0.51927 -0.854611 177.844 131.298)" fill="#D9D9D9"/>
<rect opacity="0.05" width="5.57547" height="5.56704" transform="matrix(-0.840011 0.542569 -0.51927 -0.854611 180.368 131.875)" fill="#D9D9D9"/>
<rect opacity="0.05" width="1.85849" height="1.85568" transform="matrix(-0.840011 0.542569 -0.51927 -0.854611 136.09 158.266)" fill="#D9D9D9"/>
<rect opacity="0.05" width="5.57547" height="5.56704" transform="matrix(-0.840011 0.542569 -0.51927 -0.854611 138.615 158.844)" fill="#D9D9D9"/>
<rect opacity="0.05" width="1.85849" height="1.85568" transform="matrix(-0.840011 0.542569 -0.51927 -0.854611 94.3369 185.235)" fill="#D9D9D9"/>
<rect opacity="0.05" width="5.57547" height="5.56704" transform="matrix(-0.840011 0.542569 -0.51927 -0.854611 96.8616 185.812)" fill="#D9D9D9"/>
<rect opacity="0.05" width="1.85849" height="1.85568" transform="matrix(-0.840011 0.542569 -0.51927 -0.854611 52.5837 212.204)" fill="#D9D9D9"/>
<rect opacity="0.05" width="5.57547" height="5.56704" transform="matrix(-0.840011 0.542569 -0.51927 -0.854611 55.1084 212.781)" fill="#D9D9D9"/>
<rect opacity="0.05" width="1.85849" height="1.85568" transform="matrix(-0.840011 0.542569 -0.51927 -0.854611 441.666 8.51123)" fill="#D9D9D9"/>
<rect opacity="0.05" width="5.57547" height="5.56704" transform="matrix(-0.840011 0.542569 -0.51927 -0.854611 444.191 9.08887)" fill="#D9D9D9"/>
<rect opacity="0.05" width="1.85849" height="1.85568" transform="matrix(-0.840011 0.542569 -0.51927 -0.854611 399.913 35.48)" fill="#D9D9D9"/>
<rect opacity="0.05" width="5.57547" height="5.56704" transform="matrix(-0.840011 0.542569 -0.51927 -0.854611 402.438 36.0576)" fill="#D9D9D9"/>
<rect opacity="0.05" width="1.85849" height="1.85568" transform="matrix(-0.840011 0.542569 -0.51927 -0.854611 358.16 62.4485)" fill="#D9D9D9"/>
<rect opacity="0.05" width="5.57547" height="5.56704" transform="matrix(-0.840011 0.542569 -0.51927 -0.854611 360.684 63.0261)" fill="#D9D9D9"/>
<rect opacity="0.05" width="1.85849" height="1.85568" transform="matrix(-0.840011 0.542569 -0.51927 -0.854611 316.406 89.4175)" fill="#D9D9D9"/>
<rect opacity="0.05" width="5.57547" height="5.56704" transform="matrix(-0.840011 0.542569 -0.51927 -0.854611 318.931 89.9951)" fill="#D9D9D9"/>
<rect opacity="0.05" width="1.85849" height="1.85568" transform="matrix(-0.840011 0.542569 -0.51927 -0.854611 274.653 116.386)" fill="#D9D9D9"/>
<rect opacity="0.05" width="5.57547" height="5.56704" transform="matrix(-0.840011 0.542569 -0.51927 -0.854611 277.178 116.964)" fill="#D9D9D9"/>
<rect opacity="0.05" width="1.85849" height="1.85568" transform="matrix(-0.840011 0.542569 -0.51927 -0.854611 232.9 143.355)" fill="#D9D9D9"/>
<rect opacity="0.05" width="5.57547" height="5.56704" transform="matrix(-0.840011 0.542569 -0.51927 -0.854611 235.425 143.932)" fill="#D9D9D9"/>
<rect opacity="0.05" width="1.85849" height="1.85568" transform="matrix(-0.840011 0.542569 -0.51927 -0.854611 191.146 170.323)" fill="#D9D9D9"/>
<rect opacity="0.05" width="5.57547" height="5.56704" transform="matrix(-0.840011 0.542569 -0.51927 -0.854611 193.671 170.901)" fill="#D9D9D9"/>
<rect opacity="0.05" width="1.85849" height="1.85568" transform="matrix(-0.840011 0.542569 -0.51927 -0.854611 149.393 197.292)" fill="#D9D9D9"/>
<rect opacity="0.05" width="5.57547" height="5.56704" transform="matrix(-0.840011 0.542569 -0.51927 -0.854611 151.918 197.87)" fill="#D9D9D9"/>
<rect opacity="0.05" width="1.85849" height="1.85568" transform="matrix(-0.840011 0.542569 -0.51927 -0.854611 107.64 224.261)" fill="#D9D9D9"/>
<rect opacity="0.05" width="5.57547" height="5.56704" transform="matrix(-0.840011 0.542569 -0.51927 -0.854611 110.165 224.839)" fill="#D9D9D9"/>
<rect opacity="0.05" width="1.85849" height="1.85568" transform="matrix(-0.840011 0.542569 -0.51927 -0.854611 65.8867 251.23)" fill="#D9D9D9"/>
<rect opacity="0.05" width="5.57547" height="5.56704" transform="matrix(-0.840011 0.542569 -0.51927 -0.854611 68.4114 251.807)" fill="#D9D9D9"/>
<rect opacity="0.05" width="1.85849" height="1.85568" transform="matrix(-0.840011 0.542569 -0.51927 -0.854611 496.722 20.5691)" fill="#D9D9D9"/>
<rect opacity="0.05" width="5.57547" height="5.56704" transform="matrix(-0.840011 0.542569 -0.51927 -0.854611 499.246 21.1467)" fill="#D9D9D9"/>
<rect opacity="0.05" width="1.85849" height="1.85568" transform="matrix(-0.840011 0.542569 -0.51927 -0.854611 454.971 47.5359)" fill="#D9D9D9"/>
<rect opacity="0.05" width="5.57547" height="5.56704" transform="matrix(-0.840011 0.542569 -0.51927 -0.854611 457.496 48.1135)" fill="#D9D9D9"/>
<rect opacity="0.05" width="1.85849" height="1.85568" transform="matrix(-0.840011 0.542569 -0.51927 -0.854611 413.219 74.5039)" fill="#D9D9D9"/>
<rect opacity="0.05" width="5.57547" height="5.56704" transform="matrix(-0.840011 0.542569 -0.51927 -0.854611 415.743 75.0815)" fill="#D9D9D9"/>
<rect opacity="0.05" width="1.85849" height="1.85568" transform="matrix(-0.840011 0.542569 -0.51927 -0.854611 371.466 101.472)" fill="#D9D9D9"/>
<rect opacity="0.05" width="5.57547" height="5.56704" transform="matrix(-0.840011 0.542569 -0.51927 -0.854611 373.991 102.05)" fill="#D9D9D9"/>
<rect opacity="0.05" width="1.85849" height="1.85568" transform="matrix(-0.840011 0.542569 -0.51927 -0.854611 329.713 128.441)" fill="#D9D9D9"/>
<rect opacity="0.05" width="5.57547" height="5.56704" transform="matrix(-0.840011 0.542569 -0.51927 -0.854611 332.238 129.019)" fill="#D9D9D9"/>
<rect opacity="0.05" width="1.85849" height="1.85568" transform="matrix(-0.840011 0.542569 -0.51927 -0.854611 287.96 155.41)" fill="#D9D9D9"/>
<rect opacity="0.05" width="5.57547" height="5.56704" transform="matrix(-0.840011 0.542569 -0.51927 -0.854611 290.484 155.987)" fill="#D9D9D9"/>
<rect opacity="0.05" width="1.85849" height="1.85568" transform="matrix(-0.840011 0.542569 -0.51927 -0.854611 246.207 182.378)" fill="#D9D9D9"/>
<rect opacity="0.05" width="5.57547" height="5.56704" transform="matrix(-0.840011 0.542569 -0.51927 -0.854611 248.731 182.956)" fill="#D9D9D9"/>
<rect opacity="0.05" width="1.85849" height="1.85568" transform="matrix(-0.840011 0.542569 -0.51927 -0.854611 204.453 209.347)" fill="#D9D9D9"/>
<rect opacity="0.05" width="5.57547" height="5.56704" transform="matrix(-0.840011 0.542569 -0.51927 -0.854611 206.978 209.925)" fill="#D9D9D9"/>
<rect opacity="0.05" width="1.85849" height="1.85568" transform="matrix(-0.840011 0.542569 -0.51927 -0.854611 162.7 236.316)" fill="#D9D9D9"/>
<rect opacity="0.05" width="5.57547" height="5.56704" transform="matrix(-0.840011 0.542569 -0.51927 -0.854611 165.225 236.893)" fill="#D9D9D9"/>
<rect opacity="0.05" width="1.85849" height="1.85568" transform="matrix(-0.840011 0.542569 -0.51927 -0.854611 120.947 263.284)" fill="#D9D9D9"/>
<rect opacity="0.05" width="5.57547" height="5.56704" transform="matrix(-0.840011 0.542569 -0.51927 -0.854611 123.471 263.862)" fill="#D9D9D9"/>
<rect opacity="0.05" width="1.85849" height="1.85568" transform="matrix(-0.840011 0.542569 -0.51927 -0.854611 79.1934 290.253)" fill="#D9D9D9"/>
<rect opacity="0.05" width="5.57547" height="5.56704" transform="matrix(-0.840011 0.542569 -0.51927 -0.854611 81.718 290.831)" fill="#D9D9D9"/>
<rect opacity="0.05" width="1.85849" height="1.85568" transform="matrix(-0.840011 0.542569 -0.51927 -0.854611 510.024 59.595)" fill="#D9D9D9"/>
<rect opacity="0.05" width="5.57547" height="5.56704" transform="matrix(-0.840011 0.542569 -0.51927 -0.854611 512.549 60.1726)" fill="#D9D9D9"/>
<rect opacity="0.05" width="1.85849" height="1.85568" transform="matrix(-0.840011 0.542569 -0.51927 -0.854611 468.271 86.5637)" fill="#D9D9D9"/>
<rect opacity="0.05" width="5.57547" height="5.56704" transform="matrix(-0.840011 0.542569 -0.51927 -0.854611 470.796 87.1414)" fill="#D9D9D9"/>
<rect opacity="0.05" width="1.85849" height="1.85568" transform="matrix(-0.840011 0.542569 -0.51927 -0.854611 426.518 113.532)" fill="#D9D9D9"/>
<rect opacity="0.05" width="5.57547" height="5.56704" transform="matrix(-0.840011 0.542569 -0.51927 -0.854611 429.042 114.11)" fill="#D9D9D9"/>
<rect opacity="0.05" width="1.85849" height="1.85568" transform="matrix(-0.840011 0.542569 -0.51927 -0.854611 384.765 140.501)" fill="#D9D9D9"/>
<rect opacity="0.05" width="5.57547" height="5.56704" transform="matrix(-0.840011 0.542569 -0.51927 -0.854611 387.289 141.079)" fill="#D9D9D9"/>
<rect opacity="0.05" width="1.85849" height="1.85568" transform="matrix(-0.840011 0.542569 -0.51927 -0.854611 343.011 167.47)" fill="#D9D9D9"/>
<rect opacity="0.05" width="5.57547" height="5.56704" transform="matrix(-0.840011 0.542569 -0.51927 -0.854611 345.536 168.048)" fill="#D9D9D9"/>
<rect opacity="0.05" width="1.85849" height="1.85568" transform="matrix(-0.840011 0.542569 -0.51927 -0.854611 301.258 194.438)" fill="#D9D9D9"/>
<rect opacity="0.05" width="5.57547" height="5.56704" transform="matrix(-0.840011 0.542569 -0.51927 -0.854611 303.783 195.016)" fill="#D9D9D9"/>
<rect opacity="0.05" width="1.85849" height="1.85568" transform="matrix(-0.840011 0.542569 -0.51927 -0.854611 259.505 221.407)" fill="#D9D9D9"/>
<rect opacity="0.05" width="5.57547" height="5.56704" transform="matrix(-0.840011 0.542569 -0.51927 -0.854611 262.03 221.985)" fill="#D9D9D9"/>
<rect opacity="0.05" width="1.85849" height="1.85568" transform="matrix(-0.840011 0.542569 -0.51927 -0.854611 217.752 248.376)" fill="#D9D9D9"/>
<rect opacity="0.05" width="5.57547" height="5.56704" transform="matrix(-0.840011 0.542569 -0.51927 -0.854611 220.276 248.954)" fill="#D9D9D9"/>
<rect opacity="0.05" width="1.85849" height="1.85568" transform="matrix(-0.840011 0.542569 -0.51927 -0.854611 175.999 275.345)" fill="#D9D9D9"/>
<rect opacity="0.05" width="5.57547" height="5.56704" transform="matrix(-0.840011 0.542569 -0.51927 -0.854611 178.523 275.922)" fill="#D9D9D9"/>
<rect opacity="0.05" width="1.85849" height="1.85568" transform="matrix(-0.840011 0.542569 -0.51927 -0.854611 134.245 302.313)" fill="#D9D9D9"/>
<rect opacity="0.05" width="5.57547" height="5.56704" transform="matrix(-0.840011 0.542569 -0.51927 -0.854611 136.77 302.891)" fill="#D9D9D9"/>
<rect opacity="0.05" width="1.85849" height="1.85568" transform="matrix(-0.840011 0.542569 -0.51927 -0.854611 92.4919 329.282)" fill="#D9D9D9"/>
<rect opacity="0.05" width="5.57547" height="5.56704" transform="matrix(-0.840011 0.542569 -0.51927 -0.854611 95.0166 329.86)" fill="#D9D9D9"/>
<rect opacity="0.05" width="1.85849" height="1.85568" transform="matrix(-0.840011 0.542569 -0.51927 -0.854611 523.327 98.6208)" fill="#D9D9D9"/>
<rect opacity="0.05" width="5.57547" height="5.56704" transform="matrix(-0.840011 0.542569 -0.51927 -0.854611 525.852 99.1985)" fill="#D9D9D9"/>
<rect opacity="0.05" width="1.85849" height="1.85568" transform="matrix(-0.840011 0.542569 -0.51927 -0.854611 481.574 125.59)" fill="#D9D9D9"/>
<rect opacity="0.05" width="5.57547" height="5.56704" transform="matrix(-0.840011 0.542569 -0.51927 -0.854611 484.098 126.167)" fill="#D9D9D9"/>
<rect opacity="0.05" width="1.85849" height="1.85568" transform="matrix(-0.840011 0.542569 -0.51927 -0.854611 439.821 152.558)" fill="#D9D9D9"/>
<rect opacity="0.05" width="5.57547" height="5.56704" transform="matrix(-0.840011 0.542569 -0.51927 -0.854611 442.345 153.136)" fill="#D9D9D9"/>
<rect opacity="0.05" width="1.85849" height="1.85568" transform="matrix(-0.840011 0.542569 -0.51927 -0.854611 398.067 179.527)" fill="#D9D9D9"/>
<rect opacity="0.05" width="5.57547" height="5.56704" transform="matrix(-0.840011 0.542569 -0.51927 -0.854611 400.592 180.105)" fill="#D9D9D9"/>
<rect opacity="0.05" width="1.85849" height="1.85568" transform="matrix(-0.840011 0.542569 -0.51927 -0.854611 356.314 206.496)" fill="#D9D9D9"/>
<rect opacity="0.05" width="5.57547" height="5.56704" transform="matrix(-0.840011 0.542569 -0.51927 -0.854611 358.839 207.073)" fill="#D9D9D9"/>
<rect opacity="0.05" width="1.85849" height="1.85568" transform="matrix(-0.840011 0.542569 -0.51927 -0.854611 314.561 233.465)" fill="#D9D9D9"/>
<rect opacity="0.05" width="5.57547" height="5.56704" transform="matrix(-0.840011 0.542569 -0.51927 -0.854611 317.085 234.042)" fill="#D9D9D9"/>
<rect opacity="0.05" width="1.85849" height="1.85568" transform="matrix(-0.840011 0.542569 -0.51927 -0.854611 272.807 260.433)" fill="#D9D9D9"/>
<rect opacity="0.05" width="5.57547" height="5.56704" transform="matrix(-0.840011 0.542569 -0.51927 -0.854611 275.332 261.011)" fill="#D9D9D9"/>
<rect opacity="0.05" width="1.85849" height="1.85568" transform="matrix(-0.840011 0.542569 -0.51927 -0.854611 231.054 287.402)" fill="#D9D9D9"/>
<rect opacity="0.05" width="5.57547" height="5.56704" transform="matrix(-0.840011 0.542569 -0.51927 -0.854611 233.579 287.98)" fill="#D9D9D9"/>
<rect opacity="0.05" width="1.85849" height="1.85568" transform="matrix(-0.840011 0.542569 -0.51927 -0.854611 189.301 314.371)" fill="#D9D9D9"/>
<rect opacity="0.05" width="5.57547" height="5.56704" transform="matrix(-0.840011 0.542569 -0.51927 -0.854611 191.825 314.948)" fill="#D9D9D9"/>
<rect opacity="0.05" width="1.85849" height="1.85568" transform="matrix(-0.840011 0.542569 -0.51927 -0.854611 147.548 341.34)" fill="#D9D9D9"/>
<rect opacity="0.05" width="5.57547" height="5.56704" transform="matrix(-0.840011 0.542569 -0.51927 -0.854611 150.072 341.917)" fill="#D9D9D9"/>
<rect opacity="0.05" width="1.85849" height="1.85568" transform="matrix(-0.840011 0.542569 -0.51927 -0.854611 105.794 368.308)" fill="#D9D9D9"/>
<rect opacity="0.05" width="5.57547" height="5.56704" transform="matrix(-0.840011 0.542569 -0.51927 -0.854611 108.319 368.886)" fill="#D9D9D9"/>
<rect opacity="0.05" width="1.85849" height="1.85568" transform="matrix(-0.840011 0.542569 -0.51927 -0.854611 536.63 137.648)" fill="#D9D9D9"/>
<rect opacity="0.05" width="5.57547" height="5.56704" transform="matrix(-0.840011 0.542569 -0.51927 -0.854611 539.155 138.225)" fill="#D9D9D9"/>
<rect opacity="0.05" width="1.85849" height="1.85568" transform="matrix(-0.840011 0.542569 -0.51927 -0.854611 494.88 164.614)" fill="#D9D9D9"/>
<rect opacity="0.05" width="5.57547" height="5.56704" transform="matrix(-0.840011 0.542569 -0.51927 -0.854611 497.405 165.192)" fill="#D9D9D9"/>
<rect opacity="0.05" width="1.85849" height="1.85568" transform="matrix(-0.840011 0.542569 -0.51927 -0.854611 453.128 191.582)" fill="#D9D9D9"/>
<rect opacity="0.05" width="5.57547" height="5.56704" transform="matrix(-0.840011 0.542569 -0.51927 -0.854611 455.653 192.16)" fill="#D9D9D9"/>
<rect opacity="0.05" width="1.85849" height="1.85568" transform="matrix(-0.840011 0.542569 -0.51927 -0.854611 411.376 218.55)" fill="#D9D9D9"/>
<rect opacity="0.05" width="5.57547" height="5.56704" transform="matrix(-0.840011 0.542569 -0.51927 -0.854611 413.9 219.128)" fill="#D9D9D9"/>
<rect opacity="0.05" width="1.85849" height="1.85568" transform="matrix(-0.840011 0.542569 -0.51927 -0.854611 369.622 245.519)" fill="#D9D9D9"/>
<rect opacity="0.05" width="5.57547" height="5.56704" transform="matrix(-0.840011 0.542569 -0.51927 -0.854611 372.147 246.097)" fill="#D9D9D9"/>
<rect opacity="0.05" width="1.85849" height="1.85568" transform="matrix(-0.840011 0.542569 -0.51927 -0.854611 327.869 272.488)" fill="#D9D9D9"/>
<rect opacity="0.05" width="5.57547" height="5.56704" transform="matrix(-0.840011 0.542569 -0.51927 -0.854611 330.394 273.065)" fill="#D9D9D9"/>
<rect opacity="0.05" width="1.85849" height="1.85568" transform="matrix(-0.840011 0.542569 -0.51927 -0.854611 286.117 299.456)" fill="#D9D9D9"/>
<rect opacity="0.05" width="5.57547" height="5.56704" transform="matrix(-0.840011 0.542569 -0.51927 -0.854611 288.641 300.033)" fill="#D9D9D9"/>
<rect opacity="0.05" width="1.85849" height="1.85568" transform="matrix(-0.840011 0.542569 -0.51927 -0.854611 244.364 326.424)" fill="#D9D9D9"/>
<rect opacity="0.05" width="5.57547" height="5.56704" transform="matrix(-0.840011 0.542569 -0.51927 -0.854611 246.888 327.002)" fill="#D9D9D9"/>
<rect opacity="0.05" width="1.85849" height="1.85568" transform="matrix(-0.840011 0.542569 -0.51927 -0.854611 202.61 353.393)" fill="#D9D9D9"/>
<rect opacity="0.05" width="5.57547" height="5.56704" transform="matrix(-0.840011 0.542569 -0.51927 -0.854611 205.135 353.971)" fill="#D9D9D9"/>
<rect opacity="0.05" width="1.85849" height="1.85568" transform="matrix(-0.840011 0.542569 -0.51927 -0.854611 160.857 380.362)" fill="#D9D9D9"/>
<rect opacity="0.05" width="5.57547" height="5.56704" transform="matrix(-0.840011 0.542569 -0.51927 -0.854611 163.382 380.939)" fill="#D9D9D9"/>
<rect opacity="0.05" width="1.85849" height="1.85568" transform="matrix(-0.840011 0.542569 -0.51927 -0.854611 119.104 407.331)" fill="#D9D9D9"/>
<rect opacity="0.05" width="5.57547" height="5.56704" transform="matrix(-0.840011 0.542569 -0.51927 -0.854611 121.628 407.908)" fill="#D9D9D9"/>
<rect opacity="0.05" width="1.85849" height="1.85568" transform="matrix(-0.840011 0.542569 -0.51927 -0.854611 549.932 176.673)" fill="#D9D9D9"/>
<rect opacity="0.05" width="5.57547" height="5.56704" transform="matrix(-0.840011 0.542569 -0.51927 -0.854611 552.457 177.251)" fill="#D9D9D9"/>
<rect opacity="0.05" width="1.85849" height="1.85568" transform="matrix(-0.840011 0.542569 -0.51927 -0.854611 508.179 203.642)" fill="#D9D9D9"/>
<rect opacity="0.05" width="5.57547" height="5.56704" transform="matrix(-0.840011 0.542569 -0.51927 -0.854611 510.703 204.22)" fill="#D9D9D9"/>
<rect opacity="0.05" width="1.85849" height="1.85568" transform="matrix(-0.840011 0.542569 -0.51927 -0.854611 466.426 230.611)" fill="#D9D9D9"/>
<rect opacity="0.05" width="5.57547" height="5.56704" transform="matrix(-0.840011 0.542569 -0.51927 -0.854611 468.95 231.188)" fill="#D9D9D9"/>
<rect opacity="0.05" width="1.85849" height="1.85568" transform="matrix(-0.840011 0.542569 -0.51927 -0.854611 424.672 257.58)" fill="#D9D9D9"/>
<rect opacity="0.05" width="5.57547" height="5.56704" transform="matrix(-0.840011 0.542569 -0.51927 -0.854611 427.197 258.157)" fill="#D9D9D9"/>
<rect opacity="0.05" width="1.85849" height="1.85568" transform="matrix(-0.840011 0.542569 -0.51927 -0.854611 382.919 284.548)" fill="#D9D9D9"/>
<rect opacity="0.05" width="5.57547" height="5.56704" transform="matrix(-0.840011 0.542569 -0.51927 -0.854611 385.444 285.126)" fill="#D9D9D9"/>
<rect opacity="0.05" width="1.85849" height="1.85568" transform="matrix(-0.840011 0.542569 -0.51927 -0.854611 341.166 311.517)" fill="#D9D9D9"/>
<rect opacity="0.05" width="5.57547" height="5.56704" transform="matrix(-0.840011 0.542569 -0.51927 -0.854611 343.69 312.095)" fill="#D9D9D9"/>
<rect opacity="0.05" width="1.85849" height="1.85568" transform="matrix(-0.840011 0.542569 -0.51927 -0.854611 299.412 338.486)" fill="#D9D9D9"/>
<rect opacity="0.05" width="5.57547" height="5.56704" transform="matrix(-0.840011 0.542569 -0.51927 -0.854611 301.937 339.063)" fill="#D9D9D9"/>
<rect opacity="0.05" width="1.85849" height="1.85568" transform="matrix(-0.840011 0.542569 -0.51927 -0.854611 257.659 365.454)" fill="#D9D9D9"/>
<rect opacity="0.05" width="5.57547" height="5.56704" transform="matrix(-0.840011 0.542569 -0.51927 -0.854611 260.184 366.032)" fill="#D9D9D9"/>
<rect opacity="0.05" width="1.85849" height="1.85568" transform="matrix(-0.840011 0.542569 -0.51927 -0.854611 215.906 392.423)" fill="#D9D9D9"/>
<rect opacity="0.05" width="5.57547" height="5.56704" transform="matrix(-0.840011 0.542569 -0.51927 -0.854611 218.43 393.001)" fill="#D9D9D9"/>
<rect opacity="0.05" width="1.85849" height="1.85568" transform="matrix(-0.840011 0.542569 -0.51927 -0.854611 174.153 419.392)" fill="#D9D9D9"/>
<rect opacity="0.05" width="5.57547" height="5.56704" transform="matrix(-0.840011 0.542569 -0.51927 -0.854611 176.677 419.969)" fill="#D9D9D9"/>
<rect opacity="0.05" width="1.85849" height="1.85568" transform="matrix(-0.840011 0.542569 -0.51927 -0.854611 132.399 446.361)" fill="#D9D9D9"/>
<rect opacity="0.05" width="5.57547" height="5.56704" transform="matrix(-0.840011 0.542569 -0.51927 -0.854611 134.924 446.938)" fill="#D9D9D9"/>
<rect opacity="0.05" width="1.85849" height="1.85568" transform="matrix(-0.840011 0.542569 -0.51927 -0.854611 563.476 216.074)" fill="#D9D9D9"/>
<rect opacity="0.05" width="5.57547" height="5.56704" transform="matrix(-0.840011 0.542569 -0.51927 -0.854611 566.001 216.651)" fill="#D9D9D9"/>
<rect opacity="0.05" width="1.85849" height="1.85568" transform="matrix(-0.840011 0.542569 -0.51927 -0.854611 521.721 243.043)" fill="#D9D9D9"/>
<rect opacity="0.05" width="5.57547" height="5.56704" transform="matrix(-0.840011 0.542569 -0.51927 -0.854611 524.246 243.621)" fill="#D9D9D9"/>
<rect opacity="0.05" width="1.85849" height="1.85568" transform="matrix(-0.840011 0.542569 -0.51927 -0.854611 479.969 270.012)" fill="#D9D9D9"/>
<rect opacity="0.05" width="5.57547" height="5.56704" transform="matrix(-0.840011 0.542569 -0.51927 -0.854611 482.493 270.589)" fill="#D9D9D9"/>
<rect opacity="0.05" width="1.85849" height="1.85568" transform="matrix(-0.840011 0.542569 -0.51927 -0.854611 438.216 296.98)" fill="#D9D9D9"/>
<rect opacity="0.05" width="5.57547" height="5.56704" transform="matrix(-0.840011 0.542569 -0.51927 -0.854611 440.74 297.558)" fill="#D9D9D9"/>
<rect opacity="0.05" width="1.85849" height="1.85568" transform="matrix(-0.840011 0.542569 -0.51927 -0.854611 396.462 323.949)" fill="#D9D9D9"/>
<rect opacity="0.05" width="5.57547" height="5.56704" transform="matrix(-0.840011 0.542569 -0.51927 -0.854611 398.987 324.527)" fill="#D9D9D9"/>
<rect opacity="0.05" width="1.85849" height="1.85568" transform="matrix(-0.840011 0.542569 -0.51927 -0.854611 354.709 350.918)" fill="#D9D9D9"/>
<rect opacity="0.05" width="5.57547" height="5.56704" transform="matrix(-0.840011 0.542569 -0.51927 -0.854611 357.234 351.495)" fill="#D9D9D9"/>
<rect opacity="0.05" width="1.85849" height="1.85568" transform="matrix(-0.840011 0.542569 -0.51927 -0.854611 312.957 377.886)" fill="#D9D9D9"/>
<rect opacity="0.05" width="5.57547" height="5.56704" transform="matrix(-0.840011 0.542569 -0.51927 -0.854611 315.481 378.463)" fill="#D9D9D9"/>
<rect opacity="0.05" width="1.85849" height="1.85568" transform="matrix(-0.840011 0.542569 -0.51927 -0.854611 271.204 404.854)" fill="#D9D9D9"/>
<rect opacity="0.05" width="5.57547" height="5.56704" transform="matrix(-0.840011 0.542569 -0.51927 -0.854611 273.728 405.432)" fill="#D9D9D9"/>
<rect opacity="0.05" width="1.85849" height="1.85568" transform="matrix(-0.840011 0.542569 -0.51927 -0.854611 229.45 431.823)" fill="#D9D9D9"/>
<rect opacity="0.05" width="5.57547" height="5.56704" transform="matrix(-0.840011 0.542569 -0.51927 -0.854611 231.975 432.401)" fill="#D9D9D9"/>
<rect opacity="0.05" width="1.85849" height="1.85568" transform="matrix(-0.840011 0.542569 -0.51927 -0.854611 187.697 458.792)" fill="#D9D9D9"/>
<rect opacity="0.05" width="5.57547" height="5.56704" transform="matrix(-0.840011 0.542569 -0.51927 -0.854611 190.221 459.37)" fill="#D9D9D9"/>
<rect opacity="0.05" width="1.85849" height="1.85568" transform="matrix(-0.840011 0.542569 -0.51927 -0.854611 145.944 485.761)" fill="#D9D9D9"/>
<rect opacity="0.05" width="5.57547" height="5.56704" transform="matrix(-0.840011 0.542569 -0.51927 -0.854611 148.468 486.338)" fill="#D9D9D9"/>
<rect opacity="0.05" width="1.85849" height="1.85568" transform="matrix(-0.840011 0.542569 -0.51927 -0.854611 136.063 9.47632)" fill="#D9D9D9"/>
<rect opacity="0.05" width="5.57547" height="5.56704" transform="matrix(-0.840011 0.542569 -0.51927 -0.854611 138.588 10.054)" fill="#D9D9D9"/>
<rect opacity="0.05" width="1.85849" height="1.85568" transform="matrix(-0.840011 0.542569 -0.51927 -0.854611 94.3096 36.4451)" fill="#D9D9D9"/>
<rect opacity="0.05" width="5.57547" height="5.56704" transform="matrix(-0.840011 0.542569 -0.51927 -0.854611 96.8342 37.0227)" fill="#D9D9D9"/>
<rect opacity="0.05" width="1.85849" height="1.85568" transform="matrix(-0.840011 0.542569 -0.51927 -0.854611 52.5564 63.4138)" fill="#D9D9D9"/>
<rect opacity="0.05" width="5.57547" height="5.56704" transform="matrix(-0.840011 0.542569 -0.51927 -0.854611 55.0811 63.9915)" fill="#D9D9D9"/>
<rect opacity="0.05" width="1.85849" height="1.85568" transform="matrix(-0.840011 0.542569 -0.51927 -0.854611 10.8032 90.3826)" fill="#D9D9D9"/>
<rect opacity="0.05" width="5.57547" height="5.56704" transform="matrix(-0.840011 0.542569 -0.51927 -0.854611 13.3279 90.9602)" fill="#D9D9D9"/>
<rect opacity="0.05" width="1.85849" height="1.85568" transform="matrix(-0.840011 0.542569 -0.51927 -0.854611 289.801 11.365)" fill="#D9D9D9"/>
<rect opacity="0.05" width="5.57547" height="5.56704" transform="matrix(-0.840011 0.542569 -0.51927 -0.854611 292.326 11.9426)" fill="#D9D9D9"/>
<rect opacity="0.05" width="1.85849" height="1.85568" transform="matrix(-0.840011 0.542569 -0.51927 -0.854611 248.048 38.3337)" fill="#D9D9D9"/>
<rect opacity="0.05" width="5.57547" height="5.56704" transform="matrix(-0.840011 0.542569 -0.51927 -0.854611 250.572 38.9114)" fill="#D9D9D9"/>
<rect opacity="0.05" width="1.85849" height="1.85568" transform="matrix(-0.840011 0.542569 -0.51927 -0.854611 206.294 65.3022)" fill="#D9D9D9"/>
<rect opacity="0.05" width="5.57547" height="5.56704" transform="matrix(-0.840011 0.542569 -0.51927 -0.854611 208.819 65.8799)" fill="#D9D9D9"/>
<rect opacity="0.05" width="1.85849" height="1.85568" transform="matrix(-0.840011 0.542569 -0.51927 -0.854611 164.541 92.271)" fill="#D9D9D9"/>
<rect opacity="0.05" width="5.57547" height="5.56704" transform="matrix(-0.840011 0.542569 -0.51927 -0.854611 167.066 92.8486)" fill="#D9D9D9"/>
<rect opacity="0.05" width="1.85849" height="1.85568" transform="matrix(-0.840011 0.542569 -0.51927 -0.854611 122.788 119.24)" fill="#D9D9D9"/>
<rect opacity="0.05" width="5.57547" height="5.56704" transform="matrix(-0.840011 0.542569 -0.51927 -0.854611 125.312 119.817)" fill="#D9D9D9"/>
<rect opacity="0.05" width="1.85849" height="1.85568" transform="matrix(-0.840011 0.542569 -0.51927 -0.854611 81.0344 146.208)" fill="#D9D9D9"/>
<rect opacity="0.05" width="5.57547" height="5.56704" transform="matrix(-0.840011 0.542569 -0.51927 -0.854611 83.5591 146.786)" fill="#D9D9D9"/>
<rect opacity="0.05" width="1.85849" height="1.85568" transform="matrix(-0.840011 0.542569 -0.51927 -0.854611 39.2812 173.177)" fill="#D9D9D9"/>
<rect opacity="0.05" width="5.57547" height="5.56704" transform="matrix(-0.840011 0.542569 -0.51927 -0.854611 41.8059 173.755)" fill="#D9D9D9"/>
</g>
<defs>
<clipPath id="clip0_21_5311">
<rect width="1200" height="704" fill="white"/>
</clipPath>
</defs>
</svg>
